<svg width="48" height="48" viewBox="0 0 48 48" fill="none" xmlns="http://www.w3.org/2000/svg">
<path d="M5 44.5715H39.2857V48.0001H5V44.5715Z" fill="black"/>
<path d="M32.2022 41.1429H12.0833L8.16455 13.7144H36.1182L32.2022 41.1429ZM15.0593 37.7144H29.2301L32.1685 17.1429H12.1211L15.0593 37.7144Z" fill="black"/>
<path d="M38.8057 34.2858H32.4283V30.8572H36.3367L38.6203 24.0001H32.4282V20.5715H43.3791L38.8057 34.2858Z" fill="black"/>
<path d="M18.7141 6.85714H11.8569V0H15.2855V3.42857H18.7141V6.85714Z" fill="black"/>
<path d="M18.7141 10.2859H15.2855V6.85728H11.8569V3.42871H18.7141V10.2859Z" fill="black"/>
<path d="M29.0002 6.85714H22.1431V0H25.5716V3.42857H29.0002V6.85714Z" fill="black"/>
<path d="M29.0002 10.2859H25.5716V6.85728H22.1431V3.42871H29.0002V10.2859Z" fill="black"/>
</svg>
