<svg width="24" height="25" viewBox="0 0 24 25" fill="none" xmlns="http://www.w3.org/2000/svg">
<path fill-rule="evenodd" clip-rule="evenodd" d="M22.3516 24.5L17.2779 19.4831L18.9263 17.8531L24 22.8701L22.3516 24.5Z" fill="black"/>
<path fill-rule="evenodd" clip-rule="evenodd" d="M10.1474 18.5339C14.4348 18.5339 17.9636 15.0422 17.9636 10.6695C17.9636 6.29684 14.4348 2.80509 10.1474 2.80509C5.86 2.80509 2.33115 6.29684 2.33115 10.6695C2.33115 15.0422 5.86 18.5339 10.1474 18.5339ZM10.1474 20.839C15.7516 20.839 20.2947 16.286 20.2947 10.6695C20.2947 5.05304 15.7516 0.5 10.1474 0.5C4.54313 0.5 0 5.05304 0 10.6695C0 16.286 4.54313 20.839 10.1474 20.839Z" fill="black"/>
</svg>
