<svg width="24" height="24" viewBox="0 0 24 24" fill="none" xmlns="http://www.w3.org/2000/svg">
<path fill-rule="evenodd" clip-rule="evenodd" d="M17.3737 9.87475C17.3737 14.1207 13.9607 17.5112 9.81414 17.5112C5.66756 17.5112 2.2546 14.1207 2.2546 9.87475C2.2546 5.62882 5.66756 2.23828 9.81414 2.23828C13.9607 2.23828 17.3737 5.62882 17.3737 9.87475ZM15.945 17.5861C14.2653 18.9398 12.1337 19.7495 9.81414 19.7495C4.39394 19.7495 0 15.3284 0 9.87475C0 4.42108 4.39394 0 9.81414 0C15.2343 0 19.6283 4.42108 19.6283 9.87475C19.6283 12.1827 18.8414 14.3057 17.5228 15.987L24 22.4173L22.4058 24L15.945 17.5861Z"/>
</svg>
